<?xml version="1.0" standalone="no"?>
<!DOCTYPE svg PUBLIC "-//W3C//DTD SVG 20010904//EN"
 "http://www.w3.org/TR/2001/REC-SVG-20010904/DTD/svg10.dtd">
<svg version="1.0" xmlns="http://www.w3.org/2000/svg"
 width="365.000000pt" height="365.000000pt" viewBox="0 0 365.000000 365.000000"
 preserveAspectRatio="xMidYMid meet">
<metadata>
Created by potrace 1.14, written by Peter Selinger 2001-2017
</metadata>
<g transform="translate(0.000000,365.000000) scale(0.100000,-0.100000)"
fill="#000000" stroke="none">
<path d="M585 3626 c-58 -27 -118 -83 -148 -141 l-22 -40 0 -1610 c0 -886 2
-1620 5 -1631 9 -32 59 -105 94 -136 67 -59 109 -68 315 -65 176 2 189 3 234
27 59 29 112 86 140 149 21 46 21 54 22 1053 0 738 3 1004 11 995 6 -7 42 -70
79 -142 71 -136 132 -252 195 -370 21 -38 61 -115 90 -170 29 -55 69 -131 90
-170 42 -78 111 -210 190 -360 86 -163 130 -246 170 -320 21 -38 62 -117 93
-175 130 -249 162 -307 191 -346 62 -81 130 -127 235 -158 44 -13 94 -15 255
-13 185 2 204 4 242 24 52 28 109 85 137 137 l22 41 0 1620 0 1620 -22 41
c-28 52 -85 109 -137 137 -37 20 -58 22 -227 24 -157 3 -194 0 -234 -15 -66
-24 -129 -82 -162 -150 l-28 -57 0 -1002 c0 -552 -4 -1002 -8 -1000 -5 1 -32
47 -61 102 -90 172 -188 358 -216 410 -15 28 -53 100 -85 160 -32 61 -72 137
-90 170 -18 33 -61 114 -95 180 -35 66 -81 154 -103 195 -22 41 -60 113 -85
160 -24 47 -64 121 -87 165 -23 44 -68 130 -100 190 -176 334 -189 353 -285
418 -94 64 -147 75 -375 75 -177 0 -193 -1 -240 -22z"/>
</g>
</svg>
