<?xml version="1.0" standalone="no"?>
<!DOCTYPE svg PUBLIC "-//W3C//DTD SVG 20010904//EN"
 "http://www.w3.org/TR/2001/REC-SVG-20010904/DTD/svg10.dtd">
<svg version="1.0" xmlns="http://www.w3.org/2000/svg"
 width="500.000000pt" height="500.000000pt" viewBox="0 0 500.000000 500.000000"
 preserveAspectRatio="xMidYMid meet">
<metadata>
Created by potrace 1.14, written by Peter Selinger 2001-2017
</metadata>
<g transform="translate(0.000000,500.000000) scale(0.100000,-0.100000)"
fill="#000000" stroke="none">
<path d="M405 3820 c-28 -11 -62 -45 -79 -79 -14 -26 -15 -122 -3 -177 3 -12
8 -37 11 -55 3 -19 8 -45 11 -59 3 -14 7 -43 10 -65 3 -22 7 -51 10 -65 5 -24
32 -184 76 -445 11 -66 22 -133 25 -150 2 -16 11 -66 19 -110 8 -44 17 -97 21
-119 3 -21 8 -48 10 -60 3 -11 7 -39 10 -61 3 -22 9 -60 14 -85 5 -25 37 -207
70 -405 33 -198 62 -371 65 -385 3 -14 10 -52 15 -85 20 -123 49 -179 117
-225 34 -23 46 -25 166 -27 110 -2 135 1 166 17 71 37 114 115 126 231 3 35
10 89 15 119 5 30 11 78 14 105 3 28 12 102 21 165 8 63 18 135 21 160 3 25 7
56 9 70 2 14 9 63 15 110 14 113 19 157 25 203 3 20 7 56 10 80 3 23 8 60 11
82 10 71 12 89 19 145 4 30 8 66 10 80 3 14 7 45 10 70 2 25 7 61 10 80 2 19
7 53 10 75 2 22 11 92 19 155 9 63 17 127 19 142 4 34 13 44 13 15 1 -12 4
-38 7 -57 5 -33 21 -154 33 -245 2 -22 6 -56 9 -75 3 -19 7 -55 10 -80 4 -25
8 -56 10 -70 2 -14 6 -47 10 -75 9 -76 15 -123 25 -200 5 -38 12 -88 14 -110
5 -40 22 -167 32 -240 3 -22 7 -53 8 -70 2 -16 6 -48 10 -70 3 -22 13 -96 21
-165 9 -69 18 -136 20 -150 2 -14 7 -47 10 -75 3 -27 7 -66 10 -85 3 -19 7
-60 11 -90 13 -119 54 -194 127 -229 36 -18 62 -21 157 -21 132 0 177 16 226
78 43 53 51 81 78 247 8 46 13 74 51 300 20 116 39 228 41 250 3 22 10 56 15
75 4 20 11 53 13 74 10 76 17 121 21 136 2 8 6 29 9 45 3 17 28 165 56 330 28
165 53 316 56 335 3 19 11 69 19 110 12 64 26 147 50 295 11 65 15 91 20 115
3 14 8 52 11 85 8 75 -18 138 -71 174 -31 21 -43 23 -119 20 -76 -4 -88 -7
-123 -35 -21 -17 -48 -49 -61 -72 -24 -44 -31 -76 -58 -292 -4 -38 -13 -100
-19 -140 -2 -14 -6 -52 -10 -85 -3 -33 -10 -87 -15 -120 -5 -33 -11 -82 -15
-110 -3 -27 -7 -61 -10 -75 -2 -14 -7 -46 -10 -72 -12 -106 -17 -146 -26 -206
-5 -35 -12 -89 -15 -120 -3 -31 -7 -64 -9 -72 -2 -8 -6 -40 -10 -70 -3 -30 -9
-73 -12 -95 -4 -22 -6 -43 -5 -47 1 -4 -2 -29 -7 -55 -5 -26 -12 -75 -15 -108
-4 -33 -8 -71 -11 -85 -2 -14 -7 -47 -10 -75 -18 -162 -34 -237 -36 -164 0 19
-2 41 -4 50 -1 8 -6 42 -9 75 -4 32 -9 68 -11 79 -3 11 -7 43 -9 70 -3 28 -8
66 -10 85 -3 19 -21 163 -41 320 -38 308 -43 347 -50 400 -3 19 -7 55 -10 80
-6 55 -14 113 -21 160 -6 46 -12 93 -19 160 -4 30 -8 66 -11 80 -2 14 -6 50
-9 80 -3 30 -8 66 -10 80 -3 14 -7 48 -10 75 -17 148 -28 183 -73 236 -52 60
-81 69 -224 69 -138 0 -187 -15 -227 -66 -26 -33 -51 -88 -57 -124 -4 -28 -52
-402 -59 -465 -11 -92 -17 -141 -20 -165 -2 -14 -6 -50 -10 -80 -4 -30 -8 -66
-10 -80 -2 -14 -6 -47 -10 -75 -3 -27 -8 -66 -10 -85 -3 -19 -21 -163 -40
-320 -19 -157 -37 -301 -40 -320 -2 -19 -7 -53 -9 -75 -3 -22 -10 -78 -17
-125 -6 -47 -12 -97 -13 -112 -3 -36 -16 -48 -17 -17 -1 13 -3 33 -4 44 -2 11
-6 43 -9 70 -4 28 -8 61 -11 75 -4 26 -32 253 -41 330 -3 25 -7 56 -9 70 -3
14 -7 45 -10 70 -7 54 -9 69 -29 230 -22 165 -26 200 -31 230 -4 28 -13 101
-21 170 -2 25 -7 63 -11 85 -3 22 -7 49 -8 60 -11 86 -37 285 -40 305 -2 14
-7 50 -10 80 -19 170 -55 240 -141 276 -36 15 -167 18 -199 4z"/>
<path d="M3155 3811 c-45 -23 -78 -69 -94 -127 -14 -54 -14 -2324 0 -2379 27
-104 96 -151 213 -143 69 4 102 21 138 69 46 61 46 61 46 868 0 421 1 791 2
821 l2 55 23 -50 c30 -66 67 -148 95 -210 13 -27 49 -106 80 -175 32 -69 88
-192 125 -275 37 -82 82 -181 100 -220 17 -38 103 -227 190 -418 134 -295 165
-355 202 -393 55 -55 124 -78 227 -72 86 4 120 26 160 103 l26 50 0 1171 c0
1292 3 1226 -63 1294 -40 41 -64 50 -137 50 -73 0 -103 -11 -145 -54 -61 -63
-59 -34 -60 -938 0 -454 -3 -824 -7 -821 -5 2 -8 8 -8 13 0 4 -18 48 -41 97
-22 48 -46 102 -54 118 -19 42 -117 257 -150 330 -15 33 -42 93 -61 133 -19
41 -34 75 -34 77 0 2 -17 41 -39 87 -21 45 -93 202 -159 348 -182 403 -182
402 -204 445 -33 65 -66 103 -115 132 -39 22 -61 28 -132 31 -72 3 -93 0 -126
-17z"/>
</g>
</svg>
