<?xml version="1.0" standalone="no"?>
<!DOCTYPE svg PUBLIC "-//W3C//DTD SVG 20010904//EN"
 "http://www.w3.org/TR/2001/REC-SVG-20010904/DTD/svg10.dtd">
<svg version="1.0" xmlns="http://www.w3.org/2000/svg"
 width="586.000000pt" height="586.000000pt" viewBox="0 0 586.000000 586.000000"
 preserveAspectRatio="xMidYMid meet">
<metadata>
Created by potrace 1.14, written by Peter Selinger 2001-2017
</metadata>
<g transform="translate(0.000000,586.000000) scale(0.100000,-0.100000)"
fill="#000000" stroke="none">
<path d="M2715 5854 c-447 -44 -759 -133 -1129 -321 -276 -142 -497 -303 -726
-533 -228 -227 -387 -445 -531 -724 -209 -407 -312 -802 -326 -1251 -25 -793
264 -1547 811 -2122 544 -572 1321 -903 2116 -903 752 0 1479 292 2027 814
788 750 1091 1892 783 2951 -98 337 -300 722 -528 1005 -102 126 -322 346
-449 447 -406 325 -887 533 -1418 614 -124 20 -521 34 -630 23z m-1848 -1369
c102 -30 187 -119 223 -235 13 -41 48 -280 95 -647 41 -320 75 -590 76 -600 3
-63 26 98 89 607 43 346 79 601 90 640 35 116 121 205 227 236 42 12 90 15
206 12 130 -3 159 -6 199 -25 65 -30 134 -102 170 -178 28 -61 34 -97 104
-662 42 -329 78 -606 82 -617 5 -11 34 186 71 470 91 708 97 749 125 809 33
72 97 139 165 172 51 26 66 28 171 28 107 0 118 -2 162 -27 92 -54 148 -156
148 -268 0 -33 -50 -354 -111 -712 -313 -1851 -318 -1879 -343 -1934 -31 -68
-107 -149 -171 -182 -47 -25 -60 -27 -205 -30 -138 -3 -161 -1 -211 17 -98 37
-178 125 -212 236 -9 28 -51 323 -93 657 -43 334 -80 606 -81 604 -2 -2 -39
-279 -83 -617 -44 -337 -85 -629 -91 -649 -27 -85 -104 -176 -184 -218 -46
-24 -62 -27 -190 -30 -84 -3 -161 1 -192 7 -101 23 -201 116 -242 225 -11 31
-78 395 -156 858 -75 441 -172 1013 -216 1270 -43 257 -79 485 -79 506 0 122
82 236 199 278 49 18 196 17 258 -1z m3085 -22 c77 -36 147 -104 191 -186 19
-34 164 -349 323 -700 l289 -637 5 657 5 658 30 58 c40 81 120 152 193 173 83
25 216 15 275 -19 58 -34 113 -97 146 -166 l26 -56 0 -1325 0 -1325 -28 -60
c-32 -68 -94 -137 -152 -168 -35 -19 -56 -22 -165 -22 -115 0 -130 2 -183 27
-78 37 -127 77 -170 140 -20 29 -165 337 -323 683 -157 347 -293 646 -302 665
-16 33 -17 2 -22 -620 -5 -647 -5 -656 -27 -702 -27 -59 -105 -143 -158 -171
-48 -25 -197 -35 -261 -18 -62 17 -132 69 -169 125 -69 105 -66 21 -63 1467 3
1450 -2 1340 70 1433 78 101 145 129 300 123 92 -4 115 -9 170 -34z"/>
</g>
</svg>
