<svg width="586" height="586" viewBox="0 0 586 586" fill="none" xmlns="http://www.w3.org/2000/svg">
<path fill-rule="evenodd" clip-rule="evenodd" d="M293 586C454.819 586 586 454.819 586 293C586 131.181 454.819 0 293 0C131.181 0 0 131.181 0 293C0 454.819 131.181 586 293 586ZM53.3458 170.406L95.3483 417.689C96.4421 424.091 99.0673 429.426 103.224 433.694C107.38 437.962 112.193 440.096 117.662 440.096H135.054C140.523 440.096 145.226 437.962 149.164 433.694C153.321 429.426 155.836 424.091 156.711 417.689L183.947 207.218C183.947 206.951 184.057 206.818 184.276 206.818C184.494 206.818 184.604 206.951 184.604 207.218L211.84 417.689C212.715 424.091 215.121 429.426 219.059 433.694C223.215 437.962 228.028 440.096 233.497 440.096H250.889C256.358 440.096 261.171 437.962 265.327 433.694C269.484 429.426 272.109 424.091 273.203 417.689L315.205 170.406C316.08 164.537 314.987 159.335 311.924 154.8C308.861 150.265 304.923 147.998 300.111 147.998H291.907C286.438 147.998 281.735 150.132 277.797 154.4C273.859 158.668 271.453 164.003 270.578 170.406L243.342 380.876C243.342 381.143 243.232 381.276 243.014 381.276C242.795 381.276 242.685 381.143 242.685 380.876L216.106 170.406C215.231 164.003 212.824 158.668 208.886 154.4C204.949 150.132 200.245 147.998 194.776 147.998H175.088C169.618 147.998 164.915 150.132 160.977 154.4C157.04 158.668 154.633 164.003 153.758 170.406L127.506 380.876C127.506 381.143 127.288 381.276 126.85 381.276C126.631 381.276 126.522 381.143 126.522 380.876L99.286 170.406C98.411 164.003 96.0046 158.668 92.0669 154.4C88.1292 150.132 83.4257 147.998 77.9567 147.998H68.4404C63.6277 147.998 59.5806 150.265 56.2991 154.8C53.2363 159.335 52.252 164.537 53.3458 170.406ZM358.169 433.294C361.888 437.829 366.263 440.096 371.295 440.096H378.514C383.546 440.096 387.921 437.829 391.64 433.294C395.359 428.759 397.219 423.424 397.219 417.288V241.629C397.219 241.363 397.328 241.229 397.547 241.229C397.765 241.229 397.875 241.363 397.875 241.629L478.927 420.089C484.833 433.427 494.021 440.096 506.491 440.096H513.71C518.741 440.096 523.007 437.829 526.508 433.294C530.227 428.759 532.086 423.424 532.086 417.288V170.806C532.086 164.67 530.227 159.335 526.508 154.8C523.007 150.265 518.741 147.998 513.71 147.998H506.491C501.459 147.998 497.084 150.265 493.365 154.8C489.646 159.335 487.786 164.67 487.786 170.806V346.465C487.786 346.731 487.677 346.865 487.458 346.865C487.24 346.865 487.13 346.731 487.13 346.465L406.078 168.005C400.172 154.667 390.984 147.998 378.514 147.998H371.295C366.263 147.998 361.888 150.265 358.169 154.8C354.669 159.335 352.919 164.67 352.919 170.806V417.288C352.919 423.424 354.669 428.759 358.169 433.294Z" fill="url(#paint0_linear_807_4)"/>
<defs>
<linearGradient id="paint0_linear_807_4" x1="293" y1="0" x2="293" y2="586" gradientUnits="userSpaceOnUse">
<stop stop-color="#0000FF"/>
<stop offset="1" stop-color="#FF0000"/>
</linearGradient>
</defs>
</svg>
