<svg width="586" height="586" viewBox="0 0 586 586" fill="none" xmlns="http://www.w3.org/2000/svg">
<circle cx="293" cy="293" r="293" fill="url(#paint0_linear_603_5)"/>
<path d="M89.4331 418.693L89.4341 418.699C90.7132 426.186 93.8444 432.663 98.9254 437.88C104.1 443.193 110.421 446.096 117.662 446.096H135.054C142.284 446.096 148.533 443.198 153.519 437.822C158.614 432.565 161.627 426.033 162.656 418.501L162.659 418.48L162.662 418.459L184.276 251.435L205.889 418.459L205.892 418.48L205.895 418.501C206.917 425.977 209.786 432.491 214.649 437.762L214.704 437.822L214.761 437.88C219.935 443.193 226.256 446.096 233.497 446.096H250.889C258.13 446.096 264.452 443.193 269.626 437.88C274.707 432.663 277.838 426.186 279.117 418.699L279.118 418.693L321.121 171.41L321.131 171.35L321.14 171.29C322.216 164.073 320.873 157.331 316.896 151.442L311.924 154.8L316.896 151.442C312.896 145.519 307.215 141.998 300.111 141.998H291.907C284.65 141.998 278.382 144.918 273.387 150.332L277.746 154.353L273.387 150.332C268.524 155.603 265.655 162.117 264.633 169.593L264.63 169.614L264.627 169.636L243.082 336.13L222.058 169.654L222.055 169.623L222.05 169.593C221.029 162.117 218.16 155.603 213.296 150.332L208.938 154.353L213.296 150.332C208.302 144.918 202.033 141.998 194.776 141.998H175.088C167.83 141.998 161.562 144.918 156.567 150.332L160.957 154.382L156.567 150.332C151.704 155.603 148.835 162.117 147.813 169.593L147.809 169.628L147.804 169.663L126.914 337.151L105.236 169.636L105.234 169.614L105.231 169.593C104.209 162.117 101.34 155.603 96.4768 150.332L92.0669 154.4L96.4768 150.332C91.4821 144.918 85.2138 141.998 77.9567 141.998H68.4405C61.3704 141.998 55.6378 145.479 51.4383 151.283L51.3813 151.362L51.3269 151.442C47.3067 157.395 46.0991 164.21 47.4382 171.455L89.4331 418.693ZM353.42 436.96L353.474 437.03L353.53 437.098C358.178 442.766 364.159 446.096 371.295 446.096H378.514C385.651 446.096 391.632 442.766 396.279 437.098C400.921 431.438 403.219 424.742 403.219 417.288V267.905L473.44 422.519C473.444 422.528 473.448 422.536 473.452 422.545C476.713 429.899 481.068 435.846 486.723 439.95C492.443 444.102 499.121 446.096 506.491 446.096H513.71C520.846 446.096 526.752 442.762 531.203 437.03C535.807 431.385 538.086 424.712 538.086 417.288V170.806C538.086 163.382 535.807 156.71 531.203 151.065C526.752 145.332 520.846 141.998 513.71 141.998H506.491C499.354 141.998 493.374 145.328 488.726 150.996C484.084 156.656 481.786 163.352 481.786 170.806V320.189L411.565 165.575C411.561 165.567 411.557 165.558 411.553 165.55C408.292 158.195 403.937 152.248 398.282 148.144C392.562 143.992 385.884 141.998 378.514 141.998H371.295C364.159 141.998 358.178 145.328 353.53 150.996L353.474 151.064L353.42 151.134C349.049 156.796 346.919 163.444 346.919 170.806V417.288C346.919 424.65 349.049 431.298 353.42 436.96Z" fill="white" stroke="white" stroke-width="12"/>
<defs>
<linearGradient id="paint0_linear_603_5" x1="293" y1="0" x2="293" y2="586" gradientUnits="userSpaceOnUse">
<stop stop-color="#0000FF"/>
<stop offset="1" stop-color="#FF0000"/>
</linearGradient>
</defs>
</svg>
