<svg width="609.000000" height="609.000000" viewBox="0 0 609 609" fill="none" xmlns="http://www.w3.org/2000/svg" xmlns:xlink="http://www.w3.org/1999/xlink">
	<desc>
			Created with Pixso.
	</desc>
	<defs>
		<linearGradient x1="865.500000" y1="585.000000" x2="865.500000" y2="1146.000000" id="paint_linear_10_9_0" gradientUnits="userSpaceOnUse">
			<stop offset="0.004422" stop-color="#FF0000"/>
			<stop offset="1.000000" stop-color="#1200FF"/>
		</linearGradient>
	</defs>
	<rect id="Rectangle 3" x="585.000000" y="585.000000" rx="129.000000" width="561.000000" height="561.000000" transform="rotate(180 585.000000 585.000000)" fill="url(#paint_linear_10_9_0)" fill-opacity="1.000000"/>
	<rect id="Rectangle 3" x="597.000000" y="597.000000" rx="129.000000" width="585.000000" height="585.000000" transform="rotate(180 597.000000 597.000000)" stroke="#FFFF00" stroke-opacity="1.000000" stroke-width="24.000000"/>
	<path id="path" d="M122.08 416.48C123.23 423.18 126.04 428.98 130.59 433.65C135.22 438.4 140.88 441 147.37 441L162.95 441C169.43 441 175.03 438.4 179.49 433.59C184.06 428.89 186.76 423.05 187.68 416.31L207.05 266.88L226.41 416.28C227.32 422.96 229.9 428.83 234.25 433.54L234.35 433.65C238.99 438.4 244.65 441 251.14 441L266.72 441C273.21 441 278.87 438.4 283.5 433.65C288.06 428.98 290.86 423.19 292.01 416.49L329.63 195.3L329.65 195.2C330.61 188.74 329.41 182.71 325.85 177.44L321.39 180.45L325.85 177.44C322.26 172.14 317.18 169 310.81 169L303.46 169C296.96 169 291.35 171.61 286.87 176.45L290.78 180.05L286.87 176.45C282.52 181.16 279.95 186.99 279.03 193.68L259.72 342.64L240.89 193.73C239.98 187.05 237.4 181.16 233.04 176.45L229.14 180.05L233.04 176.45C228.57 171.61 222.95 169 216.45 169L198.81 169C192.31 169 186.7 171.61 182.22 176.45L186.16 180.07L182.22 176.45C177.87 181.16 175.3 186.99 174.38 193.68L155.66 343.55L136.24 193.72C135.32 187.03 132.75 181.16 128.39 176.45L124.44 180.09L128.39 176.45C123.92 171.61 118.3 169 111.8 169L103.28 169C96.94 169 91.81 172.11 88.05 177.3L87.95 177.44C84.35 182.77 83.26 188.86 84.46 195.34L122.08 416.48ZM358.57 432.82L358.67 432.95C362.83 438.02 368.19 441 374.58 441L381.05 441C387.44 441 392.8 438.02 396.96 432.95C401.12 427.88 403.18 421.9 403.18 415.23L403.18 281.61L466.08 419.91C469.01 426.48 472.92 431.83 477.98 435.5C483.11 439.21 489.09 441 495.69 441L502.16 441C508.55 441 513.84 438.01 517.83 432.89C521.95 427.84 523.99 421.87 523.99 415.23L523.99 194.76C523.99 188.12 521.95 182.15 517.83 177.11C513.84 171.98 508.55 169 502.16 169L495.69 169C489.3 169 483.94 171.97 479.78 177.04C475.62 182.11 473.56 188.1 473.56 194.76L473.56 328.38L410.65 190.08C407.73 183.51 403.82 178.16 398.76 174.49C393.63 170.78 387.65 169 381.05 169L374.58 169C368.19 169 362.83 171.97 358.67 177.04L358.57 177.17C354.65 182.23 352.74 188.18 352.74 194.76L352.74 415.23C352.74 421.81 354.65 427.76 358.57 432.82Z" fill="#FFFF00" fill-opacity="1.000000" fill-rule="nonzero"/>
	<path id="path" d="M130.59 433.65C135.22 438.4 140.88 441 147.37 441L162.95 441C169.43 441 175.03 438.4 179.49 433.59C184.06 428.89 186.76 423.05 187.68 416.31L207.05 266.88L226.41 416.28C227.32 422.96 229.9 428.83 234.25 433.54L234.35 433.65C238.99 438.4 244.65 441 251.14 441L266.72 441C273.21 441 278.87 438.4 283.5 433.65C288.06 428.98 290.86 423.19 292.01 416.49L329.63 195.3L329.65 195.2C330.61 188.74 329.41 182.71 325.85 177.44C322.26 172.14 317.18 169 310.81 169L303.46 169C296.96 169 291.35 171.61 286.87 176.45C282.52 181.16 279.95 186.99 279.03 193.68L259.72 342.64L240.89 193.73C239.98 187.05 237.4 181.16 233.04 176.45C228.57 171.61 222.95 169 216.45 169L198.81 169C192.31 169 186.7 171.61 182.22 176.45C177.87 181.16 175.3 186.99 174.38 193.68L155.66 343.55L136.24 193.72C135.32 187.03 132.75 181.16 128.39 176.45C123.92 171.61 118.3 169 111.8 169L103.28 169C96.94 169 91.81 172.11 88.05 177.3L87.95 177.44C84.35 182.77 83.26 188.86 84.46 195.34L122.08 416.48C123.23 423.18 126.04 428.98 130.59 433.65ZM325.85 177.44L321.39 180.45M286.87 176.45L290.78 180.05M233.04 176.45L229.14 180.05M182.22 176.45L186.16 180.07M128.39 176.45L124.44 180.09M358.67 432.95C362.83 438.02 368.19 441 374.58 441L381.05 441C387.44 441 392.8 438.02 396.96 432.95C401.12 427.88 403.18 421.9 403.18 415.23L403.18 281.61L466.08 419.91C469.01 426.48 472.92 431.83 477.98 435.5C483.11 439.21 489.09 441 495.69 441L502.16 441C508.55 441 513.84 438.01 517.83 432.89C521.95 427.84 523.99 421.87 523.99 415.23L523.99 194.76C523.99 188.12 521.95 182.15 517.83 177.11C513.84 171.98 508.55 169 502.16 169L495.69 169C489.3 169 483.94 171.97 479.78 177.04C475.62 182.11 473.56 188.1 473.56 194.76L473.56 328.38L410.65 190.08C407.73 183.51 403.82 178.16 398.76 174.49C393.63 170.78 387.65 169 381.05 169L374.58 169C368.19 169 362.83 171.97 358.67 177.04L358.57 177.17C354.65 182.23 352.74 188.18 352.74 194.76L352.74 415.23C352.74 421.81 354.65 427.76 358.57 432.82L358.67 432.95Z" stroke="#FFFFFF" stroke-opacity="0" stroke-width="12.000000"/>
</svg>
