<svg width="586.000000" height="586.000061" viewBox="0 0 586 586" fill="none" xmlns="http://www.w3.org/2000/svg" xmlns:xlink="http://www.w3.org/1999/xlink">
	<desc>
			Created with Pixso.
	</desc>
	<defs>
		<clipPath id="clip10_1">
			<rect id="myIcon.svg" width="586.000000" height="586.000000" transform="translate(0.000000 0.000031)" fill="white" fill-opacity="0"/>
		</clipPath>
		<linearGradient x1="293.000000" y1="0.000031" x2="293.000000" y2="586.000000" id="paint_linear_10_6_0" gradientUnits="userSpaceOnUse">
			<stop stop-color="#0000FF"/>
			<stop offset="1.000000" stop-color="#FF0000"/>
		</linearGradient>
		<linearGradient x1="293.000000" y1="0.000031" x2="293.000000" y2="586.000000" id="paint_linear_10_6_1" gradientUnits="userSpaceOnUse">
			<stop stop-color="#FFFF00"/>
			<stop offset="1.000000" stop-color="#0000FF"/>
		</linearGradient>
	</defs>
	<mask id="mask_10_6" fill="white">
		<path id="Subtract" d="M191 3.05176e-05L395 0C500.486 0 586 85.5136 586 191L586 395C586 500.486 500.486 586 395 586L191 586C85.5136 586 0 500.486 0 395L0 191C0 85.5136 85.5136 3.05176e-05 191 3.05176e-05ZM85.8045 447.165C80.3529 441.555 76.9922 434.584 75.6198 426.533L30.5615 160.675C29.1248 152.885 30.4204 145.557 34.7339 139.155L34.8534 138.984C39.3593 132.743 45.51 129 53.0959 129L63.3062 129C71.0927 129 77.8183 132.14 83.1773 137.962C88.3952 143.63 91.4789 150.68 92.5754 158.72L115.835 338.85L138.258 158.673C139.355 150.634 142.433 143.63 147.651 137.962C153.01 132.14 159.735 129 167.523 129L188.647 129C196.433 129 203.16 132.14 208.518 137.962C213.737 143.63 216.824 150.7 217.919 158.739L240.477 337.752L263.6 158.673C264.696 150.634 267.775 143.63 272.992 137.962C278.352 132.14 285.077 129 292.863 129L301.666 129C309.288 129 315.383 132.786 319.675 139.155C323.942 145.488 325.383 152.738 324.229 160.498L324.208 160.627L279.14 426.54C277.768 434.591 274.409 441.555 268.957 447.165C263.406 452.878 256.622 456 248.853 456L230.193 456C222.423 456 215.641 452.878 210.09 447.165L209.97 447.038C204.752 441.37 201.667 434.321 200.571 426.282L177.381 246.679L154.184 426.327C153.08 434.426 149.847 441.45 144.38 447.103C139.031 452.884 132.326 456 124.569 456L105.908 456C98.1387 456 91.3566 452.878 85.8045 447.165ZM358.981 446.324L358.863 446.176C354.174 440.088 351.888 432.939 351.888 425.022L351.888 159.978C351.888 152.061 354.174 144.913 358.863 138.824L358.981 138.676C363.968 132.581 370.386 129 378.042 129L385.788 129C393.696 129 400.861 131.144 406.998 135.609C413.065 140.022 417.751 146.444 421.25 154.353L496.593 320.611L496.593 159.978C496.593 151.962 499.059 144.762 504.039 138.676C509.026 132.581 515.443 129 523.1 129L530.846 129C538.502 129 544.839 132.585 549.615 138.75C554.555 144.82 557 151.995 557 159.978L557 425.022C557 433.006 554.555 440.181 549.615 446.251C544.839 452.415 538.502 456 530.846 456L523.1 456C515.193 456 508.028 453.856 501.89 449.391C495.823 444.978 491.137 438.555 487.638 430.647L412.295 264.389L412.295 425.022C412.295 433.038 409.829 440.238 404.849 446.324C399.863 452.419 393.446 456 385.788 456L378.042 456C370.386 456 363.968 452.419 358.981 446.324Z" clip-rule="evenodd" fill="" fill-opacity="1.000000" fill-rule="evenodd"/>
	</mask>
	<path id="Subtract" d="M191 3.05176e-05L395 0C500.486 0 586 85.5136 586 191L586 395C586 500.486 500.486 586 395 586L191 586C85.5136 586 0 500.486 0 395L0 191C0 85.5136 85.5136 3.05176e-05 191 3.05176e-05ZM85.8045 447.165C80.3529 441.555 76.9922 434.584 75.6198 426.533L30.5615 160.675C29.1248 152.885 30.4204 145.557 34.7339 139.155L34.8534 138.984C39.3593 132.743 45.51 129 53.0959 129L63.3062 129C71.0927 129 77.8183 132.14 83.1773 137.962C88.3952 143.63 91.4789 150.68 92.5754 158.72L115.835 338.85L138.258 158.673C139.355 150.634 142.433 143.63 147.651 137.962C153.01 132.14 159.735 129 167.523 129L188.647 129C196.433 129 203.16 132.14 208.518 137.962C213.737 143.63 216.824 150.7 217.919 158.739L240.477 337.752L263.6 158.673C264.696 150.634 267.775 143.63 272.992 137.962C278.352 132.14 285.077 129 292.863 129L301.666 129C309.288 129 315.383 132.786 319.675 139.155C323.942 145.488 325.383 152.738 324.229 160.498L324.208 160.627L279.14 426.54C277.768 434.591 274.409 441.555 268.957 447.165C263.406 452.878 256.622 456 248.853 456L230.193 456C222.423 456 215.641 452.878 210.09 447.165L209.97 447.038C204.752 441.37 201.667 434.321 200.571 426.282L177.381 246.679L154.184 426.327C153.08 434.426 149.847 441.45 144.38 447.103C139.031 452.884 132.326 456 124.569 456L105.908 456C98.1387 456 91.3566 452.878 85.8045 447.165ZM358.981 446.324L358.863 446.176C354.174 440.088 351.888 432.939 351.888 425.022L351.888 159.978C351.888 152.061 354.174 144.913 358.863 138.824L358.981 138.676C363.968 132.581 370.386 129 378.042 129L385.788 129C393.696 129 400.861 131.144 406.998 135.609C413.065 140.022 417.751 146.444 421.25 154.353L496.593 320.611L496.593 159.978C496.593 151.962 499.059 144.762 504.039 138.676C509.026 132.581 515.443 129 523.1 129L530.846 129C538.502 129 544.839 132.585 549.615 138.75C554.555 144.82 557 151.995 557 159.978L557 425.022C557 433.006 554.555 440.181 549.615 446.251C544.839 452.415 538.502 456 530.846 456L523.1 456C515.193 456 508.028 453.856 501.89 449.391C495.823 444.978 491.137 438.555 487.638 430.647L412.295 264.389L412.295 425.022C412.295 433.038 409.829 440.238 404.849 446.324C399.863 452.419 393.446 456 385.788 456L378.042 456C370.386 456 363.968 452.419 358.981 446.324Z" clip-rule="evenodd" fill="url(#paint_linear_10_6_0)" fill-opacity="1.000000" fill-rule="evenodd" mask="url(#mask_10_6)"/>
	<path id="Subtract" d="M395 0L191 3.05176e-05C85.5136 3.05176e-05 0 85.5136 0 191L0 395C0 500.486 85.5136 586 191 586L395 586C500.486 586 586 500.486 586 395L586 191C586 85.5136 500.486 0 395 0ZM151.392 16.3664Q170.702 12.0001 191 12.0001L395 12Q415.298 12 434.608 16.3665Q449.951 19.8358 464.671 26.0618Q479.673 32.4069 493.073 41.1937Q508.365 51.2209 521.572 64.4279Q534.778 77.6335 544.804 92.9238Q553.592 106.326 559.938 121.329Q566.164 136.048 569.633 151.39Q574 170.701 574 191L574 395Q574 415.298 569.634 434.608Q566.164 449.951 559.938 464.671Q553.594 479.671 544.809 493.069Q534.781 508.363 521.572 521.572Q508.365 534.779 493.074 544.806Q479.673 553.593 464.671 559.938Q449.95 566.165 434.605 569.634Q415.296 574 395 574L191 574Q170.702 574 151.392 569.634Q136.049 566.164 121.329 559.938Q106.325 553.592 92.9229 544.804Q77.6331 534.777 64.4279 521.572Q51.2209 508.365 41.1937 493.073Q32.4069 479.673 26.0618 464.671Q19.8354 449.95 16.3659 434.606Q12 415.297 12 395L12 191Q12 170.702 16.3665 151.392Q19.8358 136.049 26.0618 121.329Q32.4076 106.326 41.1956 92.924Q51.2222 77.6337 64.4279 64.4279Q77.6335 51.2223 92.9238 41.1958Q106.326 32.4077 121.329 26.0619Q136.049 19.8358 151.392 16.3664ZM141.317 450L142.981 450Q150.415 450 156.741 447.353Q163.624 444.472 169.196 438.457Q172.766 434.771 175.318 430.478Q179.873 422.815 181.182 413.223L189.881 345.947L198.585 413.268Q198.95 415.937 199.561 418.462L190.04 344.719L178.308 253.86L177.948 251.072L157.38 410.146Q156.879 413.819 155.41 416.835L154.184 426.327C153.08 434.426 149.847 441.45 144.38 447.103C143.404 448.158 142.382 449.125 141.317 450ZM119.711 307.702L102.68 175.981Q101.808 169.596 98.374 165.224Q97.9106 164.634 97.4005 164.081Q95.3219 161.826 92.8463 160.817L92.5754 158.72C91.4789 150.68 88.3952 143.63 83.1773 137.962C82.5403 137.27 81.8839 136.616 81.2088 136L88.5775 136Q95.6222 136 101.708 138.416Q109.081 141.342 115.047 147.815Q117.976 150.992 120.188 154.608Q125.075 162.599 126.459 172.733L131.58 212.334L119.711 307.702ZM240.878 334.645L240.085 334.644L239.795 332.341L236.893 309.312L217.919 158.739C216.824 150.7 213.737 143.63 208.518 137.962C208.125 137.535 207.725 137.123 207.318 136.725Q210.268 137.324 213.022 138.418Q220.392 141.345 226.356 147.815Q229.26 150.964 231.458 154.546Q236.381 162.565 237.771 172.752L246.058 238.428L254.546 172.777Q255.949 162.504 260.93 154.44Q263.106 150.916 265.965 147.814Q266.548 147.182 267.143 146.585C265.366 150.28 264.193 154.325 263.6 158.673L249.638 266.801L241.153 332.517L240.878 334.645ZM323.221 146.41C324.647 150.829 324.963 155.56 324.229 160.498L324.208 160.627L279.14 426.54C277.867 434.012 274.881 440.548 270.1 445.935Q275.291 443.172 279.805 438.534Q283.196 435.049 285.71 431.018Q290.451 423.42 292.079 413.881L332.123 177.926L332.158 177.702Q333.479 168.829 331.228 160.981Q329.621 155.376 326.192 150.294Q324.778 148.199 323.221 146.41ZM358.863 446.176L358.981 446.324C359.909 447.458 360.886 448.504 361.911 449.457Q359.07 448.939 356.418 447.928Q348.251 444.815 341.868 437.024L341.763 436.894L341.658 436.762Q337.836 431.808 335.673 426.213Q332.851 418.916 332.851 410.528L332.851 175.472Q332.851 166.629 335.947 159.05Q338.039 153.928 341.544 149.383L341.763 149.106Q348.352 141.063 356.763 137.956Q358.65 137.26 360.627 136.811C360.063 137.403 359.514 138.025 358.981 138.676L358.863 138.824C354.174 144.913 351.888 152.061 351.888 159.978L351.888 425.022C351.888 432.939 354.174 440.088 358.863 446.176ZM461.356 242.854L461.356 175.472Q461.356 167.048 464.256 159.781Q466.558 154.014 470.687 148.975Q477.069 141.186 485.234 138.073Q490.67 136 496.896 136L503.774 136Q505.103 136 506.392 136.094C505.576 136.895 504.791 137.757 504.039 138.676C499.059 144.762 496.593 151.962 496.593 159.978L496.593 160.005Q495.981 160.028 495.385 160.139Q492.056 160.763 489.25 164.187Q487.827 165.924 486.924 167.898Q485.356 171.327 485.356 175.472L485.356 295.814L461.356 242.854ZM412.295 269.441L412.295 327.52L454.432 420.377Q460.594 434.284 471.007 441.847Q474.991 444.742 479.409 446.609Q487.436 450 496.896 450L502.755 450C502.464 449.802 502.176 449.599 501.89 449.391C495.823 444.978 491.137 438.555 487.638 430.647L483.193 420.839Q479.245 417.134 476.375 410.655L412.295 269.441Z" clip-rule="evenodd" fill="url(#paint_linear_10_6_1)" fill-opacity="0.000000" fill-rule="evenodd"/>
</svg>
