<svg width="586.000000" height="586.000000" viewBox="0 0 586 586" fill="none" xmlns="http://www.w3.org/2000/svg" xmlns:xlink="http://www.w3.org/1999/xlink">
	<desc>
			Created with Pixso.
	</desc>
	<defs>
		<clipPath id="clip5_11">
			<rect id="myIcon.svg" width="586.000000" height="586.000000" fill="white" fill-opacity="0"/>
		</clipPath>
		<linearGradient x1="292.999969" y1="0.000000" x2="292.999969" y2="585.999939" id="paint_linear_5_17_0" gradientUnits="userSpaceOnUse">
			<stop stop-color="#0000FF"/>
			<stop offset="1.000000" stop-color="#FF0000"/>
		</linearGradient>
	</defs>
	<path id="Subtract" d="M0 293C0 131.181 131.181 0 293 0C454.819 0 586 131.181 586 293C586 454.819 454.819 586 293 586C131.181 586 0 454.819 0 293ZM94.6271 442.066C88.735 436.016 85.0319 428.56 83.5178 419.698L41.5381 172.546C40.5634 167.272 40.7047 162.298 41.9621 157.625C42.8673 154.261 44.3509 151.052 46.413 147.999L46.5773 147.766C49.9906 143.048 53.9866 139.749 58.5651 137.868C61.6008 136.621 64.8926 135.998 68.4405 135.998L77.9567 135.998C81.9288 135.998 85.6404 136.669 89.0914 138.01C93.4362 139.698 97.3679 142.449 100.887 146.263C102.439 147.946 103.825 149.737 105.043 151.635C108.252 156.633 110.299 162.377 111.186 168.866L126.804 289.553L141.868 168.78C142.728 162.489 144.696 156.892 147.771 151.991C149.044 149.963 150.506 148.054 152.157 146.263C155.676 142.449 159.608 139.698 163.953 138.009C167.404 136.668 171.116 135.998 175.088 135.998L194.776 135.998Q200.739 135.998 205.918 138.012L205.918 138.012C210.26 139.701 214.189 142.451 217.705 146.263C223.35 152.38 226.785 159.926 228.011 168.902L243.155 288.817L258.688 168.78C259.548 162.489 261.516 156.892 264.592 151.99C265.864 149.962 267.326 148.053 268.977 146.263C272.497 142.448 276.43 139.697 280.776 138.008C284.226 136.668 287.936 135.998 291.907 135.998L300.111 135.998C309.174 135.998 316.427 140.027 321.868 148.084C326.673 155.198 328.405 163.247 327.066 172.229L327.036 172.415L285.031 419.709C284.013 425.673 282.001 431 278.996 435.691C277.539 437.966 275.848 440.091 273.924 442.066C270.093 446.001 265.856 448.778 261.216 450.397C257.972 451.53 254.529 452.096 250.889 452.096L233.497 452.096C224.652 452.096 216.956 448.734 210.408 442.01L210.239 441.831C208.681 440.142 207.291 438.345 206.07 436.44C202.868 431.446 200.824 425.709 199.939 419.229L184.276 298.187L168.601 419.313C167.374 428.291 163.813 435.821 157.918 441.902C151.615 448.698 143.994 452.096 135.054 452.096L117.662 452.096C108.818 452.096 101.139 448.753 94.6271 442.066ZM348.838 440.838L348.671 440.626C343.503 433.932 340.919 426.153 340.919 417.288L340.919 170.806C340.919 161.941 343.522 154.137 348.728 147.394L348.89 147.191C352.698 142.548 357.028 139.349 361.88 137.595C364.826 136.53 367.964 135.998 371.295 135.998L378.514 135.998C387.347 135.998 395.111 138.428 401.806 143.288C408.137 147.883 413.211 154.484 417.028 163.094L475.786 292.468L475.786 170.806C475.786 161.81 478.553 153.939 484.086 147.191C487.894 142.548 492.224 139.349 497.076 137.595C500.022 136.53 503.16 135.998 506.491 135.998L513.71 135.998C517.327 135.998 520.696 136.621 523.815 137.868C528.375 139.69 532.402 142.843 535.898 147.328C538.242 150.213 540.083 153.303 541.421 156.597C543.198 160.972 544.086 165.709 544.086 170.806L544.086 417.288C544.086 426.222 541.357 434.048 535.899 440.766C530.011 448.319 522.615 452.096 513.71 452.096L506.491 452.096C497.658 452.096 489.894 449.666 483.199 444.806C476.869 440.212 471.795 433.61 467.977 425L409.219 295.626L409.219 417.288C409.219 422.389 408.329 427.129 406.55 431.507C405.191 434.85 403.314 437.981 400.919 440.902C394.801 448.365 387.332 452.096 378.514 452.096L371.295 452.096C362.478 452.096 354.957 448.3 348.838 440.838Z" clip-rule="evenodd" fill="url(#paint_linear_5_17_0)" fill-opacity="1.000000" fill-rule="evenodd"/>
</svg>
