<svg width="586.000000" height="586.000000" viewBox="0 0 586 586" fill="none" xmlns="http://www.w3.org/2000/svg" xmlns:xlink="http://www.w3.org/1999/xlink">
	<desc>
			Created with Pixso.
	</desc>
	<defs>
		<clipPath id="clip5_1">
			<rect id="myIcon.svg" width="586.000000" height="586.000000" fill="white" fill-opacity="0"/>
		</clipPath>
		<linearGradient x1="292.999969" y1="0.000000" x2="292.999969" y2="585.999939" id="paint_linear_5_2_0" gradientUnits="userSpaceOnUse">
			<stop stop-color="#0000FF"/>
			<stop offset="1.000000" stop-color="#FF0000"/>
		</linearGradient>
	</defs>
	<g clip-path="url(#clip5_1)">
		<circle id="circle" cx="293.000000" cy="293.000000" r="293.000000" fill="url(#paint_linear_5_2_0)" fill-opacity="1.000000"/>
		<circle id="circle" cx="293.000000" cy="293.000000" r="282.500000" stroke="#FFFF00" stroke-opacity="1.000000" stroke-width="21.000000"/>
		<path id="path" d="M132.58 391.37C133.59 397.28 136.07 402.39 140.08 406.51C144.17 410.7 149.16 413 154.88 413L168.62 413C174.33 413 179.27 410.71 183.21 406.47C187.23 402.32 189.61 397.16 190.43 391.22L207.5 259.37L224.58 391.18C225.38 397.08 227.66 402.26 231.5 406.42L231.59 406.51C235.67 410.7 240.67 413 246.39 413L260.12 413C265.84 413 270.84 410.7 274.93 406.51C278.94 402.39 281.41 397.28 282.42 391.37L315.6 196.21L315.62 196.11C316.47 190.42 315.41 185.1 312.27 180.45L308.34 183.1L312.27 180.45C309.11 175.77 304.62 173 299.01 173L292.53 173C286.79 173 281.84 175.3 277.9 179.57L281.34 182.75L277.9 179.57C274.06 183.73 271.79 188.87 270.98 194.77L253.96 326.21L237.35 194.82C236.54 188.92 234.27 183.73 230.43 179.57L226.99 182.75L230.43 179.57C226.48 175.3 221.53 173 215.8 173L200.25 173C194.51 173 189.56 175.3 185.62 179.57L189.08 182.77L185.62 179.57C181.77 183.73 179.51 188.87 178.7 194.77L162.19 327.01L145.07 194.81C144.26 188.91 141.99 183.73 138.15 179.57L134.66 182.78L138.15 179.57C134.2 175.3 129.25 173 123.52 173L116 173C110.41 173 105.89 175.74 102.57 180.32L102.48 180.45C99.3 185.15 98.35 190.53 99.41 196.24L132.58 391.37ZM341.12 405.79L341.21 405.89C344.88 410.37 349.6 413 355.24 413L360.94 413C366.58 413 371.3 410.37 374.98 405.89C378.64 401.43 380.46 396.14 380.46 390.26L380.46 272.36L435.93 394.39C438.5 400.19 441.95 404.91 446.42 408.14C450.94 411.42 456.22 413 462.04 413L467.74 413C473.38 413 478.04 410.36 481.56 405.84C485.2 401.39 487 396.12 487 390.26L487 195.73C487 189.87 485.2 184.61 481.56 180.15C478.04 175.63 473.38 173 467.74 173L462.04 173C456.4 173 451.68 175.62 448 180.1C444.34 184.56 442.52 189.85 442.52 195.73L442.52 313.63L387.05 191.6C384.47 185.8 381.02 181.09 376.56 177.85C372.04 174.57 366.76 173 360.94 173L355.24 173C349.6 173 344.88 175.62 341.21 180.1L341.12 180.21C337.67 184.67 335.98 189.92 335.98 195.73L335.98 390.26C335.98 396.07 337.67 401.32 341.12 405.79Z" fill="#FFFF00" fill-opacity="1.000000" fill-rule="nonzero"/>
		<path id="path" d="M140.08 406.51C144.17 410.7 149.16 413 154.88 413L168.62 413C174.33 413 179.27 410.71 183.21 406.47C187.23 402.32 189.61 397.16 190.43 391.22L207.5 259.37L224.58 391.18C225.38 397.08 227.66 402.26 231.5 406.42L231.59 406.51C235.67 410.7 240.67 413 246.39 413L260.12 413C265.84 413 270.84 410.7 274.93 406.51C278.94 402.39 281.41 397.28 282.42 391.37L315.6 196.21L315.62 196.11C316.47 190.42 315.41 185.1 312.27 180.45C309.11 175.77 304.62 173 299.01 173L292.53 173C286.79 173 281.84 175.3 277.9 179.57C274.06 183.73 271.79 188.87 270.98 194.77L253.96 326.21L237.35 194.82C236.54 188.92 234.27 183.73 230.43 179.57C226.48 175.3 221.53 173 215.8 173L200.25 173C194.51 173 189.56 175.3 185.62 179.57C181.77 183.73 179.51 188.87 178.7 194.77L162.19 327.01L145.07 194.81C144.26 188.91 141.99 183.73 138.15 179.57C134.2 175.3 129.25 173 123.52 173L116 173C110.41 173 105.89 175.74 102.57 180.32L102.48 180.45C99.3 185.15 98.35 190.53 99.41 196.24L132.58 391.37C133.59 397.28 136.07 402.39 140.08 406.51ZM312.27 180.45L308.34 183.1M277.9 179.57L281.34 182.75M230.43 179.57L226.99 182.75M185.62 179.57L189.08 182.77M138.15 179.57L134.66 182.78M341.21 405.89C344.88 410.37 349.6 413 355.24 413L360.94 413C366.58 413 371.3 410.37 374.98 405.89C378.64 401.43 380.46 396.14 380.46 390.26L380.46 272.36L435.93 394.39C438.5 400.19 441.95 404.91 446.42 408.14C450.94 411.42 456.22 413 462.04 413L467.74 413C473.38 413 478.04 410.36 481.56 405.84C485.2 401.39 487 396.12 487 390.26L487 195.73C487 189.87 485.2 184.61 481.56 180.15C478.04 175.63 473.38 173 467.74 173L462.04 173C456.4 173 451.68 175.62 448 180.1C444.34 184.56 442.52 189.85 442.52 195.73L442.52 313.63L387.05 191.6C384.47 185.8 381.02 181.09 376.56 177.85C372.04 174.57 366.76 173 360.94 173L355.24 173C349.6 173 344.88 175.62 341.21 180.1L341.12 180.21C337.67 184.67 335.98 189.92 335.98 195.73L335.98 390.26C335.98 396.07 337.67 401.32 341.12 405.79L341.21 405.89Z" stroke="#FFFFFF" stroke-opacity="0" stroke-width="12.000000"/>
	</g>
</svg>
